HIERARCHY
ROOT Hips
{
 OFFSET 0.000000 0.000000 0.000000
 CHANNELS 6 Xposition Yposition Zposition Yrotation Xrotation Zrotation
 JOINT Chest
 {
  OFFSET 0.000000 9.857222 0.000240
  CHANNELS 3 Yrotation Xrotation Zrotation
  JOINT Chest2
  {
   OFFSET 0.000000 10.876940 -0.000436
   CHANNELS 3 Yrotation Xrotation Zrotation
   JOINT Chest3
   {
    OFFSET 0.000000 9.827798 0.000000
    CHANNELS 3 Yrotation Xrotation Zrotation
    JOINT Chest4
    {
     OFFSET 0.000000 9.827798 0.000000
     CHANNELS 3 Yrotation Xrotation Zrotation
     JOINT Neck
     {
      OFFSET 0.000000 13.831992 0.000000
      CHANNELS 3 Yrotation Xrotation Zrotation
      JOINT Head
      {
       OFFSET 0.000000 9.147643 -0.001036
       CHANNELS 3 Yrotation Xrotation Zrotation
       End Site
       {
        OFFSET 0.000000 17.515799 -0.000541
       }
      }
     }
     JOINT RightCollar
     {
      OFFSET -3.001579 7.717577 0.000000
      CHANNELS 3 Yrotation Xrotation Zrotation
      JOINT RightShoulder
      {
       OFFSET -14.002642 0.000000 0.000000
       CHANNELS 3 Yrotation Xrotation Zrotation
       JOINT RightElbow
       {
        OFFSET -30.053852 0.000000 0.000000
        CHANNELS 3 Yrotation Xrotation Zrotation
        JOINT RightWrist
        {
         OFFSET -24.564923 0.000000 -0.000000
         CHANNELS 3 Yrotation Xrotation Zrotation
         End Site
         {
          OFFSET -18.334355 0.000000 0.000000
         }
        }
       }
      }
     }
     JOINT LeftCollar
     {
      OFFSET 3.001579 7.717577 0.000000
      CHANNELS 3 Yrotation Xrotation Zrotation
      JOINT LeftShoulder
      {
       OFFSET 14.002642 0.000000 0.000000
       CHANNELS 3 Yrotation Xrotation Zrotation
       JOINT LeftElbow
       {
        OFFSET 30.053852 0.000000 0.000000
        CHANNELS 3 Yrotation Xrotation Zrotation
        JOINT LeftWrist
        {
         OFFSET 24.564923 0.000000 -0.000000
         CHANNELS 3 Yrotation Xrotation Zrotation
         End Site
         {
          OFFSET 18.334355 0.000000 0.000000
         }
        }
       }
      }
     }
    }
   }
  }
 }
 JOINT RightHip
 {
  OFFSET -8.003235 -0.001175 -0.000120
  CHANNELS 3 Yrotation Xrotation Zrotation
  JOINT RightKnee
  {
   OFFSET 0.000000 -41.759727 0.000113
   CHANNELS 3 Yrotation Xrotation Zrotation
   JOINT RightAnkle
   {
    OFFSET 0.000000 -40.728748 0.000159
    CHANNELS 3 Yrotation Xrotation Zrotation
    JOINT RightToe
    {
     OFFSET 0.000000 -6.515296 14.732841
     CHANNELS 3 Yrotation Xrotation Zrotation
     End Site
     {
      OFFSET 0.000000 -1.502839 6.412115
     }
    }
   }
  }
 }
 JOINT LeftHip
 {
  OFFSET 8.003235 -0.001175 -0.000120
  CHANNELS 3 Yrotation Xrotation Zrotation
  JOINT LeftKnee
  {
   OFFSET 0.000000 -41.759727 0.000113
   CHANNELS 3 Yrotation Xrotation Zrotation
   JOINT LeftAnkle
   {
    OFFSET 0.000000 -40.728748 0.000159
    CHANNELS 3 Yrotation Xrotation Zrotation
    JOINT LeftToe
    {
     OFFSET 0.000000 -6.515296 14.732841
     CHANNELS 3 Yrotation Xrotation Zrotation
     End Site
     {
      OFFSET 0.000000 -1.502839 6.412115
     }
    }
   }
  }
 }
}
MOTION
Frames: 5
Frame Time: 0.016667
0.000000 88.822259 0.000000 0.000000 -5.826342 0.000000 0.000000 11.116423 0.000000 0.000000 -5.290081 0.000000 0.000000 0.000000 0.000000 0.000000 0.000000 0.000000 0.000000 12.665069 0.000000 0.000000 0.575450 0.000000 0.000000 0.000000 0.000000 0.000000 0.000000 0.000000 2.337306 0.000000 0.000000 -2.337306 0.000000 0.000000 0.000000 0.000000 0.000000 0.000000 0.000000 0.000000 -2.337306 0.000000 0.000000 2.337306 0.000000 0.000000 0.000000 8.578828 0.000000 0.000000 1.905768 0.000000 0.000000 -4.658254 0.000000 0.000000 0.000000 0.000000 0.000000 8.578828 0.000000 0.000000 1.905768 0.000000 0.000000 -4.658254 0.000000 0.000000 0.000000 0.000000
9.037446 89.302560 18.998761 -32.479905 -17.580828 1.328628 0.476124 11.245851 3.329827 0.188687 4.951501 1.431593 0.188687 4.951501 1.431593 0.129803 3.714092 1.071493 -9.235441 21.737577 0.330743 -16.804321 4.695816 3.162965 6.563311 0.932139 9.963235 38.429155 -10.907647 78.325059 20.983655 -25.362919 -17.758806 -5.922176 -6.712009 -13.256087 -24.007589 7.988952 -12.792980 -28.774965 7.796092 -57.104545 -27.868626 -48.581646 4.720493 6.073882 8.667042 4.708396 -5.919417 23.674975 -14.682824 -8.309874 -4.370983 4.632656 -0.898558 -1.351005 6.027720 0.019081 0.198372 0.026282 9.668512 17.306596 10.300676 -0.011506 7.977133 0.236904 -0.292060 -6.719680 -7.796022 -0.022864 -0.017975 0.007724
9.044598 89.299151 19.005541 -32.409530 -17.568520 1.379579 0.433206 11.278822 3.373750 0.185448 4.950558 1.454168 0.185448 4.950558 1.454168 0.127195 3.713385 1.088441 -9.238295 21.733413 0.310230 -16.804055 4.685542 3.127341 6.556285 0.797655 9.986437 38.465222 -10.692182 78.419728 21.327341 -25.767461 -18.205649 -5.832390 -6.698611 -13.217414 -24.012485 7.985046 -12.776157 -28.684417 7.843712 -57.028695 -27.674563 -48.581955 4.436342 6.048836 8.652530 4.612091 -5.917442 23.695610 -14.721857 -8.369337 -4.395256 4.619318 -0.927496 -1.369906 6.032813 0.011844 0.214597 0.029785 9.589928 17.315408 10.216629 -0.035588 7.944313 0.239835 -0.260503 -6.698964 -7.804058 -0.025184 -0.025572 0.012947
9.048694 89.294289 19.008871 -32.367996 -17.533021 1.417685 0.417549 11.286846 3.422852 0.183282 4.948402 1.479267 0.183282 4.948402 1.479267 0.125373 3.711771 1.107272 -9.242258 21.729400 0.289891 -16.805829 4.675689 3.092306 6.543071 0.669179 10.000165 38.372991 -10.555411 78.585892 21.732792 -26.173901 -18.768038 -5.707318 -6.697467 -13.244785 -24.014432 7.977814 -12.772584 -28.643841 7.915667 -56.951882 -27.488718 -48.606396 4.210644 6.030208 8.584299 4.555494 -5.838214 23.702431 -14.704838 -8.449170 -4.413850 4.586517 -0.959908 -1.374855 6.040486 0.006200 0.209841 0.032828 9.601007 17.280578 10.183122 -0.098090 7.929649 0.225836 -0.260371 -6.701958 -7.812560 -0.024395 -0.023478 0.021972
9.046571 89.285258 19.010088 -32.351192 -17.470252 1.460748 0.414264 11.269054 3.453213 0.182073 4.941176 1.504538 0.182073 4.941176 1.504538 0.124280 3.706357 1.126228 -9.241869 21.727440 0.271185 -16.800049 4.669405 3.058796 6.539834 0.584466 10.014084 38.233193 -10.524674 78.760244 22.223330 -26.687560 -19.454231 -5.550744 -6.778365 -13.351256 -24.003367 7.971129 -12.780410 -28.638502 8.005615 -56.894139 -27.327613 -48.680859 4.062163 6.024922 8.555562 4.549204 -5.700780 23.676149 -14.700521 -8.548247 -4.408317 4.594445 -0.934652 -1.393125 6.053213 -0.042789 0.204590 0.015698 9.682279 17.205302 10.171635 -0.153068 7.933680 0.207826 -0.314202 -6.723042 -7.826703 -0.016631 -0.018735 0.035215
